<svg width="14" height="6" viewBox="0 0 14 6" fill="none" xmlns="http://www.w3.org/2000/svg">
<path fill-rule="evenodd" clip-rule="evenodd" d="M2.59998 3.00005C2.59998 2.88959 2.68952 2.80005 2.79998 2.80005C2.91043 2.80005 2.99998 2.88959 2.99998 3.00005C2.99998 3.11051 2.91043 3.20005 2.79998 3.20005C2.68952 3.20005 2.59998 3.11051 2.59998 3.00005ZM2.79998 0.800049C1.58495 0.800049 0.599976 1.78502 0.599976 3.00005C0.599976 4.21508 1.58495 5.20005 2.79998 5.20005C4.015 5.20005 4.99998 4.21508 4.99998 3.00005C4.99998 1.78502 4.015 0.800049 2.79998 0.800049ZM11 3.00005C11 2.88959 11.0895 2.80005 11.2 2.80005C11.3104 2.80005 11.4 2.88959 11.4 3.00005C11.4 3.11051 11.3104 3.20005 11.2 3.20005C11.0895 3.20005 11 3.11051 11 3.00005ZM11.2 0.800049C9.98495 0.800049 8.99998 1.78502 8.99998 3.00005C8.99998 4.21508 9.98495 5.20005 11.2 5.20005C12.415 5.20005 13.4 4.21508 13.4 3.00005C13.4 1.78502 12.415 0.800049 11.2 0.800049Z" fill="#637085"/>
</svg>
