<svg width="22" height="22" viewBox="0 0 22 22" fill="none" xmlns="http://www.w3.org/2000/svg">
<path d="M11.6315 2.2002C12.2969 2.2003 12.8994 2.56971 13.2321 3.11523C13.3939 3.37918 13.5021 3.70474 13.4752 4.04785C13.4572 4.31176 13.5375 4.57594 13.6813 4.82227C14.1399 5.57024 15.1565 5.85202 15.9479 5.42969C16.8382 4.91929 17.9626 5.22743 18.4752 6.09863L19.0778 7.13672C19.5994 8.00792 19.3111 9.12536 18.4117 9.62695C17.6474 10.0758 17.3779 11.0704 17.8366 11.8271C17.9804 12.0647 18.1424 12.2674 18.3942 12.3906C18.7089 12.5578 18.9518 12.822 19.1227 13.0859C19.4552 13.6315 19.4278 14.3002 19.1041 14.8896L18.4752 15.9453C18.1425 16.5085 17.5219 16.8603 16.8834 16.8604C16.5687 16.8604 16.218 16.7726 15.9303 16.5967C15.6965 16.4471 15.4261 16.3945 15.1383 16.3945C14.2481 16.3947 13.5022 17.125 13.4752 17.9961C13.4752 19.008 12.6471 19.7998 11.6129 19.7998H10.3903C9.34708 19.7998 8.51922 19.008 8.51917 17.9961C8.50118 17.1249 7.75516 16.3946 6.86487 16.3945C6.56827 16.3945 6.29861 16.4473 6.07386 16.5967C5.78607 16.7727 5.42552 16.8604 5.11975 16.8604C4.47237 16.8602 3.85186 16.5084 3.51917 15.9453L2.89905 14.8896C2.56638 14.3178 2.54798 13.6315 2.8805 13.0859C3.02437 12.822 3.2945 12.5578 3.60022 12.3906C3.85202 12.2674 4.01375 12.0647 4.16663 11.8271C4.61625 11.0704 4.34693 10.0758 3.58265 9.62695C2.69232 9.12535 2.40402 8.00792 2.91663 7.13672L3.51917 6.09863C4.04077 5.22744 5.15598 4.91931 6.0553 5.42969C6.83771 5.85209 7.85446 5.57027 8.31311 4.82227C8.4569 4.57595 8.53715 4.31175 8.51917 4.04785C8.50123 3.70477 8.60033 3.37917 8.77112 3.11523C9.10383 2.5697 9.7065 2.21787 10.3629 2.2002H11.6315Z" fill="white"/>
<path d="M11.0106 13.4904C9.59868 13.4904 8.45654 12.3904 8.45654 11.0088C8.45654 9.6272 9.59868 8.5184 11.0106 8.5184C12.4226 8.5184 13.5377 9.6272 13.5377 11.0088C13.5377 12.3904 12.4226 13.4904 11.0106 13.4904Z" fill="#1A1926"/>
<path opacity="0.25" d="M19.1225 13.0856C18.9517 12.8216 18.7088 12.5576 18.3941 12.3904C18.1423 12.2672 17.9804 12.0648 17.8365 11.8272C17.3778 11.0704 17.6476 10.076 18.4121 9.6272C19.3114 9.1256 19.5992 8.008 19.0776 7.1368L18.475 6.0984C17.9624 5.2272 16.8383 4.9192 15.9479 5.4296C15.1565 5.852 14.1403 5.5704 13.6816 4.8224C13.5377 4.576 13.4568 4.312 13.4748 4.048C13.5018 3.7048 13.3938 3.3792 13.232 3.1152C12.8992 2.5696 12.2967 2.2 11.6312 2.2H10.3631C9.70662 2.2176 9.10408 2.5696 8.77133 3.1152C8.60046 3.3792 8.50153 3.7048 8.51952 4.048C8.5375 4.312 8.45657 4.576 8.31267 4.8224C7.85402 5.5704 6.83778 5.852 6.05537 5.4296C5.15605 4.9192 4.04089 5.2272 3.51928 6.0984L2.91674 7.1368C2.40412 8.008 2.69191 9.1256 3.58224 9.6272C4.34666 10.076 4.61646 11.0704 4.1668 11.8272C4.01391 12.0648 3.85203 12.2672 3.60022 12.3904C3.29445 12.5576 3.02466 12.8216 2.88077 13.0856C2.54802 13.6312 2.566 14.3176 2.89875 14.8896L3.51928 15.9456C3.85203 16.5088 4.47257 16.8608 5.12008 16.8608C5.42585 16.8608 5.78558 16.7728 6.07336 16.5968C6.29819 16.4472 6.56799 16.3944 6.86476 16.3944C7.75509 16.3944 8.50153 17.1248 8.51952 17.996C8.51952 19.008 9.34689 19.8 10.3901 19.8H11.6132C12.6474 19.8 13.4748 19.008 13.4748 17.996C13.5018 17.1248 14.2482 16.3944 15.1385 16.3944C15.4263 16.3944 15.6961 16.4472 15.9299 16.5968C16.2177 16.7728 16.5685 16.8608 16.8832 16.8608C17.5217 16.8608 18.1423 16.5088 18.475 15.9456L19.1045 14.8896C19.4283 14.3 19.4553 13.6312 19.1225 13.0856Z" fill="#1A1926"/>
</svg>
